<?xml version="1.0" standalone="no"?>
<!DOCTYPE svg PUBLIC "-//W3C//DTD SVG 20010904//EN" "http://www.w3.org/TR/2001/REC-SVG-20010904/DTD/svg10.dtd">
<!-- Created using Karbon14, part of koffice: http://www.koffice.org/karbon -->
<svg xmlns="http://www.w3.org/2000/svg" xmlns:xlink="http://www.w3.org/1999/xlink" width="595.276pt" height="841.89pt">
  <defs>
  </defs>
  <g id="layer1">
    <g id="BlackBishop" transform="translate(-4.16334e-16, 1017.55)" fill="none">
      <path id="path4582" fill="#000000" fill-rule="evenodd" stroke="#000000" stroke-width="1.5" stroke-linecap="butt" stroke-linejoin="round" d="M3 2C6.38526 1.02767 13.1147 2.43082 16.5 0C19.8853 2.43082 26.6147 1.02767 30 2C30 2 31.6459 2.54151 33 4C32.3229 4.97233 31.3541 4.98616 30 4.5C26.6147 3.52767 19.8853 4.95849 16.5 3.5C13.1147 4.95849 6.38526 3.52767 3 4.5C1.6459 4.98616 0.677051 4.97233 0 4C1.3541 2.05534 3 2 3 2Z"  transform="translate(0.75, 29.25)" />
      <path id="path4584" fill="#000000" fill-rule="evenodd" stroke="#000000" stroke-width="1.5" stroke-linecap="butt" stroke-linejoin="round" d="M1.3047 21.5C3.8047 24 13.8047 24 16.3047 21.5C16.8047 20 16.3047 19.5 16.3047 19.5C16.3047 17 13.8047 15.5 13.8047 15.5C19.3047 14 19.8047 4 8.8047 0C-2.1953 4 -1.6953 14 3.8047 15.5C3.8047 15.5 1.3047 17 1.3047 19.5C1.3047 19.5 0.80472 20 1.3047 21.5Z"  transform="translate(8.4453, 5.75)" />
      <path id="path4586" fill="#000000" stroke="#000000" stroke-width="1.5" stroke-linecap="butt" stroke-linejoin="round" d="M5 2.5C5 3.88071 3.88071 5 2.5 5C1.11929 5 0 3.88071 0 2.5C0 1.11929 1.11929 0 2.5 0C3.88071 0 5 1.11929 5 2.5Z"  transform="translate(14.75, 0.75)" />
      <path id="path4588" fill="none" stroke="#ffffff" stroke-width="1.5" stroke-linecap="round" stroke-linejoin="miter" stroke-miterlimit="4" d="M0 0L10 0"  transform="translate(12.25, 21.25)" />
      <path id="path4590" fill="none" stroke="#ffffff" stroke-width="1.5" stroke-linecap="round" stroke-linejoin="miter" stroke-miterlimit="4" d="M0 0L15 0"  transform="translate(9.75, 25.25)" />
      <path id="path4592" fill="none" stroke="#ffffff" stroke-width="1.5" stroke-linecap="round" stroke-linejoin="miter" stroke-miterlimit="4" d="M0 0L0 5"  transform="translate(17.25, 10.75)" />
      <path id="path4594" fill="none" stroke="#ffffff" stroke-width="1.5" stroke-linecap="round" stroke-linejoin="miter" stroke-miterlimit="4" d="M0 0L5 0"  transform="translate(14.75, 13.25)" />
    </g>
    <g id="WhiteBishop" transform="translate(-4.16334e-16, 967.548)" fill="none">
      <g id="layer1-9" fill="none">
        <path id="path4582-3" fill="#ffffff" fill-rule="evenodd" stroke="#000000" stroke-width="1.5" stroke-linecap="butt" stroke-linejoin="round" d="M3 2C6.38526 1.02767 13.1147 2.43082 16.5 0C19.8853 2.43082 26.6147 1.02767 30 2C30 2 31.6459 2.54151 33 4C32.3229 4.97233 31.3541 4.98616 30 4.5C26.6147 3.52767 19.8853 4.95849 16.5 3.5C13.1147 4.95849 6.38526 3.52767 3 4.5C1.6459 4.98616 0.677051 4.97233 0 4C1.3541 2.05534 3 2 3 2Z"  transform="translate(0.75, 29.25)" />
        <path id="path4584-1" fill="#ffffff" fill-rule="evenodd" stroke="#000000" stroke-width="1.5" stroke-linecap="butt" stroke-linejoin="round" d="M1.3047 21.5C3.8047 24 13.8047 24 16.3047 21.5C16.8047 20 16.3047 19.5 16.3047 19.5C16.3047 17 13.8047 15.5 13.8047 15.5C19.3047 14 19.8047 4 8.8047 0C-2.1953 4 -1.6953 14 3.8047 15.5C3.8047 15.5 1.3047 17 1.3047 19.5C1.3047 19.5 0.80472 20 1.3047 21.5Z"  transform="translate(8.4453, 5.75)" />
        <path id="path4586-9" fill="#ffffff" stroke="#000000" stroke-width="1.5" stroke-linecap="butt" stroke-linejoin="round" d="M5 2.5C5 3.88071 3.88071 5 2.5 5C1.11929 5 0 3.88071 0 2.5C0 1.11929 1.11929 0 2.5 0C3.88071 0 5 1.11929 5 2.5Z"  transform="translate(14.75, 0.75)" />
        <path id="path4588-4" fill="none" stroke="#000000" stroke-width="1.5" stroke-linecap="butt" stroke-linejoin="miter" stroke-miterlimit="4" d="M0 0L10 0"  transform="translate(12.25, 21.25)" />
        <path id="path4590-7" fill="none" stroke="#000000" stroke-width="1.5" stroke-linecap="butt" stroke-linejoin="miter" stroke-miterlimit="4" d="M0 0L15 0"  transform="translate(9.75, 25.25)" />
        <path id="path4592-8" fill="none" stroke="#000000" stroke-width="1.5" stroke-linecap="round" stroke-linejoin="miter" stroke-miterlimit="4" d="M0 0L0 5"  transform="translate(17.25, 10.75)" />
        <path id="path4594-4" fill="none" stroke="#000000" stroke-width="1.5" stroke-linecap="round" stroke-linejoin="miter" stroke-miterlimit="4" d="M0 0L5 0"  transform="translate(14.75, 13.25)" />
      </g>
      <g id="layer2" transform="translate(4.16334e-16, -967.548)" fill="none">
      </g>
    </g>
    <g id="BlackKing" transform="translate(50, 1017.24)" fill="none">
      <path id="path6570" fill="none" stroke="#000000" stroke-width="1.5" stroke-linecap="round" stroke-linejoin="miter" stroke-miterlimit="4" d="M0 5.625L0 0"  transform="translate(17.4231, 0.75)" />
      <path id="path5683" fill="#000000" fill-rule="evenodd" stroke="#000000" stroke-width="1.5" stroke-linecap="butt" stroke-linejoin="miter" stroke-miterlimit="4" d="M3.30612 13C3.30612 13 7.80612 5.5 6.30612 2.5C6.30612 2.5 5.30612 0 3.30612 0C1.30612 0 0.306124 2.5 0.306124 2.5C-1.19388 5.5 3.30612 13 3.30612 13"  transform="translate(14.117, 6.75)" />
      <path id="path5681" fill="#000000" fill-rule="evenodd" stroke="#000000" stroke-width="1.5" stroke-linecap="round" stroke-linejoin="round" d="M5.67313 21.069C11.1731 24.569 21.1731 24.569 26.6731 21.069L26.6731 14.069C26.6731 14.069 35.6731 9.56896 32.6731 3.56896C28.6731 -2.93104 19.1731 0.0689611 16.6731 7.56896L16.6731 11.069L16.6731 7.56896C13.1731 0.0689611 3.67313 -2.93104 0.67313 3.56896C-2.32687 9.56896 5.67313 13.569 5.67313 13.569Z"  transform="translate(0.75, 10.681)" />
      <path id="path6572" fill="none" stroke="#000000" stroke-width="1.5" stroke-linecap="round" stroke-linejoin="miter" stroke-miterlimit="4" d="M0 0L5 0"  transform="translate(14.9231, 2.75)" />
      <path id="path6574" fill="none" stroke="#ffffff" stroke-width="1.5" stroke-linecap="round" stroke-linejoin="miter" stroke-miterlimit="4" d="M0 1.81677C5.5 -0.683234 15.5 -0.683234 21 2.31677"  transform="translate(6.42313, 22.4332)" />
      <path id="path6576" fill="none" stroke="#ffffff" stroke-width="1.5" stroke-linecap="round" stroke-linejoin="round" d="M0 1.875C5.5 -0.625 15.5 -0.625 21 1.875"  transform="translate(6.42313, 29.875)" />
      <path id="path6578" fill="none" stroke="#ffffff" stroke-width="1.5" stroke-linecap="round" stroke-linejoin="round" d="M0 1.5C5.5 -0.5 15.5 -0.5 21 1.5"  transform="translate(6.42313, 26.75)" />
      <path id="path5638" fill="none" stroke="#ffffff" stroke-width="1.5" stroke-linecap="round" stroke-linejoin="round" d="M25.5205 12.4924C25.5205 12.4924 34.0205 8.49243 31.5464 2.83898C27.6679 -3.01102 18.5205 0.992428 16.0205 7.49243L16.0322 9.58898L16.0205 7.49243C13.5205 0.992428 3.42687 -3.01102 0.517946 2.83898C-1.97952 8.49243 5.36615 11.839 5.36615 11.839"  transform="translate(1.40265, 11.7576)" />
    </g>
    <g id="WhiteKing" transform="translate(50, 967.237)" fill="none">
      <path id="path6570-1" fill="none" stroke="#000000" stroke-width="1.5" stroke-linecap="round" stroke-linejoin="miter" stroke-miterlimit="4" d="M0 5.625L0 0"  transform="translate(17.4231, 0.75)" />
      <path id="path5683-0" fill="#ffffff" fill-rule="evenodd" stroke="#000000" stroke-width="1.5" stroke-linecap="butt" stroke-linejoin="miter" stroke-miterlimit="4" d="M3.30612 13C3.30612 13 7.80612 5.5 6.30612 2.5C6.30612 2.5 5.30612 0 3.30612 0C1.30612 0 0.306124 2.5 0.306124 2.5C-1.19388 5.5 3.30612 13 3.30612 13"  transform="translate(14.117, 6.75)" />
      <path id="path5681-6" fill="#ffffff" fill-rule="evenodd" stroke="#000000" stroke-width="1.5" stroke-linecap="round" stroke-linejoin="round" d="M5.67313 21.069C11.1731 24.569 21.1731 24.569 26.6731 21.069L26.6731 14.069C26.6731 14.069 35.6731 9.56896 32.6731 3.56896C28.6731 -2.93104 19.1731 0.0689611 16.6731 7.56896L16.6731 11.069L16.6731 7.56896C13.1731 0.0689611 3.67313 -2.93104 0.67313 3.56896C-2.32687 9.56896 5.67313 13.569 5.67313 13.569Z"  transform="translate(0.75, 10.681)" />
      <path id="path6572-3" fill="none" stroke="#000000" stroke-width="1.5" stroke-linecap="round" stroke-linejoin="miter" stroke-miterlimit="4" d="M0 0L5 0"  transform="translate(14.9231, 2.75)" />
      <path id="path6574-2" fill="none" stroke="#000000" stroke-width="1.5" stroke-linecap="round" stroke-linejoin="miter" stroke-miterlimit="4" d="M0 1.81677C5.5 -0.683234 15.5 -0.683234 21 2.31677"  transform="translate(6.42313, 22.4332)" />
      <path id="path6576-0" fill="none" stroke="#000000" stroke-width="1.5" stroke-linecap="round" stroke-linejoin="round" d="M0 1.875C5.5 -0.625 15.5 -0.625 21 1.875"  transform="translate(6.42313, 29.875)" />
      <path id="path6578-6" fill="none" stroke="#000000" stroke-width="1.5" stroke-linecap="round" stroke-linejoin="round" d="M0 1.5C5.5 -0.5 15.5 -0.5 21 1.5"  transform="translate(6.42313, 26.75)" />
    </g>
    <g id="BlackKnight" transform="translate(100, 1019.36)" fill="none">
      <path id="path3491" fill="#000000" fill-rule="evenodd" stroke="#000000" stroke-width="1" stroke-linecap="round" stroke-linejoin="miter" stroke-miterlimit="2" d="M7 0C17.5 1 23.5 8 23 29L0 29C0 20 10 22.5 8 8"  transform="translate(9.5, 3.5)" />
      <path id="path3495" fill="#000000" fill-rule="evenodd" stroke="#000000" stroke-width="1" stroke-linecap="round" stroke-linejoin="round" d="M18 11C18.3845 13.9113 12.4471 18.3686 10 20C7 22 7.1808 24.3429 5 24C3.95828 23.056 6.41343 20.9625 5 21C4 21 5.18733 22.2317 4 23C3 23 -0.00315831 24 2.49315e-06 19C2.49315e-06 17 6 7 6 7C6 7 7.88587 5.09787 8 3.5C7.27396 2.50563 7.5 1.5 7.5 0.5C8.5 -0.5 10.5 3 10.5 3L12.5 3C12.5 3 13.2818 1.00807 15 0C16 0 16 3 16 3"  transform="translate(0.5, 0.5)" />
      <path id="path3499" fill="#000000" stroke="#ffffff" stroke-width="1" stroke-linecap="round" stroke-linejoin="round" d="M1 0.5C1 0.776142 0.776142 1 0.5 1C0.223858 1 0 0.776142 0 0.5C0 0.223858 0.223858 0 0.5 0C0.776142 0 1 0.223858 1 0.5Z"  transform="translate(3, 18.5)" />
      <path id="path3501" fill="#000000" stroke="#ffffff" stroke-width="1" stroke-linecap="round" stroke-linejoin="round" d="M1 1.5C1 2.32843 0.776142 3 0.5 3C0.223858 3 0 2.32843 0 1.5C0 0.671573 0.223858 0 0.5 0C0.776142 0 1 0.671573 1 1.5Z"  transform="matrix(0.866025 0.5 -0.5 0.866025 9.31698 7.45096)" />
      <path id="path8049" fill="#ffffff" fill-rule="evenodd" d="M0.3 0L0 1.1L0.55 1.2C3.65146 1.67715 6.87353 3.4342 9.125 7.69375C11.3765 11.9533 12.0472 18.6569 11.55 28.6L11.5 29.1L13.25 29.1L13.25 28.6C13.7528 18.5431 12.3735 11.7467 10 7.25625C7.62647 2.7658 4.21104 0.622853 0.8125 0.1Z"  transform="translate(18.75, 3.9)" />
    </g>
    <g id="WhiteKnight" transform="translate(100, 968.862)" fill="none">
      <path id="path3491-7" fill="#ffffff" fill-rule="evenodd" stroke="#000000" stroke-width="1.5" stroke-linecap="round" stroke-linejoin="miter" stroke-miterlimit="4" d="M7 0C17.5 1 23.5 8 23 29L0 29C0 20 10 22.5 8 8"  transform="translate(9.75, 3.75)" />
      <path id="path3495-6" fill="#ffffff" fill-rule="evenodd" stroke="#000000" stroke-width="1.5" stroke-linecap="round" stroke-linejoin="round" d="M18 11C18.3845 13.9113 12.4471 18.3686 10 20C7 22 7.1808 24.3429 5 24C3.95828 23.056 6.41343 20.9625 5 21C4 21 5.18733 22.2317 4 23C3 23 -0.00315831 24 2.49315e-06 19C2.49315e-06 17 6 7 6 7C6 7 7.88587 5.09787 8 3.5C7.27396 2.50563 7.5 1.5 7.5 0.5C8.5 -0.5 10.5 3 10.5 3L12.5 3C12.5 3 13.2818 1.00807 15 0C16 0 16 3 16 3"  transform="translate(0.75, 0.75)" />
      <path id="path3499-5" fill="#000000" stroke="#000000" stroke-width="1.5" stroke-linecap="round" stroke-linejoin="round" d="M1 0.5C1 0.776142 0.776142 1 0.5 1C0.223858 1 0 0.776142 0 0.5C0 0.223858 0.223858 0 0.5 0C0.776142 0 1 0.223858 1 0.5Z"  transform="translate(3.25, 18.75)" />
      <path id="path3501-6" fill="#000000" stroke="#000000" stroke-width="1.5" stroke-linecap="round" stroke-linejoin="round" d="M1 1.5C1 2.32843 0.776142 3 0.5 3C0.223858 3 0 2.32843 0 1.5C0 0.671573 0.223858 0 0.5 0C0.776142 0 1 0.671573 1 1.5Z"  transform="matrix(0.866025 0.5 -0.5 0.866025 9.56698 7.70096)" />
      <path id="path8049-9" fill="none" stroke="#000000" stroke-width="1" stroke-linecap="round" stroke-linejoin="miter" stroke-miterlimit="4" d="M12 28.5C13 8.5 6.5 1 0 0"  transform="translate(19.75, 4.25)" />
    </g>
    <g id="BlackPawn" transform="translate(150, 1020.86)" fill="none">
      <path id="path3194" fill="#000000" stroke="#000000" stroke-width="1" stroke-linecap="round" stroke-linejoin="miter" stroke-miterlimit="4" d="M11.5 0C9.292 0 7.5 1.792 7.5 4C7.5 4.8851 7.79397 5.71223 8.28125 6.375C6.32927 7.49692 5 9.58849 5 12C5 14.0339 5.94204 15.8391 7.40625 17.0312C4.4071 18.0891 0 22.578 0 30.5L23 30.5C23 22.578 18.5929 18.0891 15.5938 17.0312C17.058 15.8391 18 14.0339 18 12C18 9.58849 16.6707 7.49692 14.7187 6.375C15.206 5.71223 15.5 4.8851 15.5 4C15.5 1.792 13.708 0 11.5 0Z"  transform="translate(0.5, 0.5)" />
    </g>
    <g id="WhitePawn" transform="translate(150, 970.362)" fill="none">
      <path id="path3194-5" fill="#ffffff" stroke="#000000" stroke-width="1.5" stroke-linecap="round" stroke-linejoin="miter" stroke-miterlimit="4" d="M11.5 0C9.292 0 7.5 1.792 7.5 4C7.5 4.8851 7.79397 5.71223 8.28125 6.375C6.32927 7.49692 5 9.58849 5 12C5 14.0339 5.94204 15.8391 7.40625 17.0312C4.4071 18.0891 0 22.578 0 30.5L23 30.5C23 22.578 18.5929 18.0891 15.5938 17.0312C17.058 15.8391 18 14.0339 18 12C18 9.58849 16.6707 7.49692 14.7187 6.375C15.206 5.71223 15.5 4.8851 15.5 4C15.5 1.792 13.708 0 11.5 0Z"  transform="translate(0.75, 0.75)" />
    </g>
    <g id="BlackQueen" transform="translate(200, 1017.61)" fill="none">
      <path id="path5571" fill="#000000" stroke="#000000" stroke-width="1" stroke-linecap="round" stroke-linejoin="round" d="M4 2C4 3.10457 3.10457 4 2 4C0.895431 4 0 3.10457 0 2C0 0.895431 0.895431 0 2 0C3.10457 0 4 0.895431 4 2Z"  transform="translate(0.5, 5)" />
      <path id="path5573" fill="#000000" stroke="#000000" stroke-width="1" stroke-linecap="round" stroke-linejoin="round" d="M4 2C4 3.10457 3.10457 4 2 4C0.895431 4 0 3.10457 0 2C0 0.895431 0.895431 0 2 0C3.10457 0 4 0.895431 4 2Z"  transform="translate(17, 0.5)" />
      <path id="path5575" fill="#000000" stroke="#000000" stroke-width="1" stroke-linecap="round" stroke-linejoin="round" d="M4 2C4 3.10457 3.10457 4 2 4C0.895431 4 0 3.10457 0 2C0 0.895431 0.895431 0 2 0C3.10457 0 4 0.895431 4 2Z"  transform="translate(33.5, 5)" />
      <path id="path5577" fill="#000000" stroke="#000000" stroke-width="1" stroke-linecap="round" stroke-linejoin="round" d="M4 2C4 3.10457 3.10457 4 2 4C0.895431 4 0 3.10457 0 2C0 0.895431 0.895431 0 2 0C3.10457 0 4 0.895431 4 2Z"  transform="translate(8.5, 1.5)" />
      <path id="path5579" fill="#000000" stroke="#000000" stroke-width="1" stroke-linecap="round" stroke-linejoin="round" d="M4 2C4 3.10457 3.10457 4 2 4C0.895431 4 0 3.10457 0 2C0 0.895431 0.895431 0 2 0C3.10457 0 4 0.895431 4 2Z"  transform="translate(25.5, 2)" />
      <path id="path5581" fill="#000000" fill-rule="evenodd" stroke="#000000" stroke-width="1" stroke-linecap="butt" stroke-linejoin="round" d="M2 16.5C10.5 15 23 15 29 16.5L31 4.5L24 15.5L24 1.5L18.5 15L15.5 0L12.5 15L7 1L7 15.5L0 4.5Z"  transform="translate(3.5, 4.5)" />
      <path id="path5583" fill="#000000" fill-rule="evenodd" stroke="#000000" stroke-width="1" stroke-linecap="butt" stroke-linejoin="round" d="M0 1.125C0 3.125 1.5 3.125 2.5 5.125C3.5 6.625 3.5 6.125 3 8.625C1.5 9.625 1.5 11.125 1.5 11.125C0 12.625 2 13.625 2 13.625C8.5 14.625 18.5 14.625 25 13.625C25 13.625 26.5 12.625 25 11.125C25 11.125 25.5 9.625 24 8.625C23.5 6.125 23.5 6.625 24.5 5.125C25.5 3.125 27 3.125 27 1.125C18.5 -0.375 8.5 -0.375 0 1.125Z"  transform="translate(5.5, 19.875)" />
      <path id="path5585" fill="none" stroke="#ffffff" stroke-width="1" stroke-linecap="round" stroke-linejoin="round" d="M0 0.75C3.5 -0.25 18.5 -0.25 22 0.75"  transform="translate(8, 24.25)" />
      <path id="path5587" fill="none" stroke="#ffffff" stroke-width="1" stroke-linecap="round" stroke-linejoin="round" d="M0 0.75C6 -0.25 15 -0.25 21 0.75"  transform="translate(8.5, 27.75)" />
      <path id="path5589" fill="none" stroke="#ffffff" stroke-width="1" stroke-linecap="round" stroke-linejoin="round" d="M0 0.75C5 -0.25 18.5 -0.25 23.5 0.75"  transform="translate(7, 30.25)" />
    </g>
    <g id="WhiteQueen" transform="translate(200.1, 967.112)" fill="none">
      <path id="path5571-0" fill="#ffffff" stroke="#000000" stroke-width="1.5" stroke-linecap="round" stroke-linejoin="round" d="M4 2C4 3.10457 3.10457 4 2 4C0.895431 4 0 3.10457 0 2C0 0.895431 0.895431 0 2 0C3.10457 0 4 0.895431 4 2Z"  transform="translate(0.75, 5.25)" />
      <path id="path5573-7" fill="#ffffff" stroke="#000000" stroke-width="1.5" stroke-linecap="round" stroke-linejoin="round" d="M4 2C4 3.10457 3.10457 4 2 4C0.895431 4 0 3.10457 0 2C0 0.895431 0.895431 0 2 0C3.10457 0 4 0.895431 4 2Z"  transform="translate(17.25, 0.75)" />
      <path id="path5575-8" fill="#ffffff" stroke="#000000" stroke-width="1.5" stroke-linecap="round" stroke-linejoin="round" d="M4 2C4 3.10457 3.10457 4 2 4C0.895431 4 0 3.10457 0 2C0 0.895431 0.895431 0 2 0C3.10457 0 4 0.895431 4 2Z"  transform="translate(33.75, 5.25)" />
      <path id="path5577-6" fill="#ffffff" stroke="#000000" stroke-width="1.5" stroke-linecap="round" stroke-linejoin="round" d="M4 2C4 3.10457 3.10457 4 2 4C0.895431 4 0 3.10457 0 2C0 0.895431 0.895431 0 2 0C3.10457 0 4 0.895431 4 2Z"  transform="translate(8.75, 1.75)" />
      <path id="path5579-8" fill="#ffffff" stroke="#000000" stroke-width="1.5" stroke-linecap="round" stroke-linejoin="round" d="M4 2C4 3.10457 3.10457 4 2 4C0.895431 4 0 3.10457 0 2C0 0.895431 0.895431 0 2 0C3.10457 0 4 0.895431 4 2Z"  transform="translate(25.75, 2.25)" />
      <path id="path5581-8" fill="#ffffff" fill-rule="evenodd" stroke="#000000" stroke-width="1.5" stroke-linecap="butt" stroke-linejoin="round" d="M2 16.5C10.5 15 23 15 29 16.5L31 4.5L24 15.5L24 1.5L18.5 15L15.5 0L12.5 15L7 1L7 15.5L0 4.5Z"  transform="translate(3.75, 4.75)" />
      <path id="path5583-4" fill="#ffffff" fill-rule="evenodd" stroke="#000000" stroke-width="1.5" stroke-linecap="butt" stroke-linejoin="round" d="M0 1.125C0 3.125 1.5 3.125 2.5 5.125C3.5 6.625 3.5 6.125 3 8.625C1.5 9.625 1.5 11.125 1.5 11.125C0 12.625 2 13.625 2 13.625C8.5 14.625 18.5 14.625 25 13.625C25 13.625 26.5 12.625 25 11.125C25 11.125 25.5 9.625 24 8.625C23.5 6.125 23.5 6.625 24.5 5.125C25.5 3.125 27 3.125 27 1.125C18.5 -0.375 8.5 -0.375 0 1.125Z"  transform="translate(5.75, 20.125)" />
      <path id="path5585-3" fill="none" stroke="#000000" stroke-width="1" stroke-linecap="round" stroke-linejoin="round" d="M0 0.75C3.5 -0.25 18.5 -0.25 22 0.75"  transform="translate(8.25, 24.5)" />
      <path id="path5587-1" fill="none" stroke="#000000" stroke-width="1" stroke-linecap="round" stroke-linejoin="round" d="M0 0.75C6 -0.25 15 -0.25 21 0.75"  transform="translate(8.75, 28)" />
      <path id="path5589-4" fill="none" stroke="#000000" stroke-width="1" stroke-linecap="round" stroke-linejoin="round" d="M0 0.75C5 -0.25 18.5 -0.25 23.5 0.75"  transform="translate(7.25, 30.5)" />
    </g>
    <g id="BlackRook" transform="translate(250, 1020.86)" fill="none">
      <path id="path3119" fill="#000000" fill-rule="evenodd" stroke="#000000" stroke-width="1.5" stroke-linecap="butt" stroke-linejoin="round" d="M0 3L27 3L27 0L0 0Z"  transform="translate(0.75, 27.75)" />
      <path id="path3123" fill="#000000" fill-rule="evenodd" stroke="#000000" stroke-width="1.5" stroke-linecap="butt" stroke-linejoin="round" d="M0 2.5L1.5 0L18.5 0L20 2.5Z"  transform="translate(4.25, 21.25)" />
      <path id="path3121" fill="#000000" fill-rule="evenodd" stroke="#000000" stroke-width="1.5" stroke-linecap="butt" stroke-linejoin="round" d="M0 4L0 0L21 0L21 4Z"  transform="translate(3.75, 23.75)" />
      <path id="path3125" fill="#000000" fill-rule="evenodd" stroke="#000000" stroke-width="1.5" stroke-linecap="butt" stroke-linejoin="miter" stroke-miterlimit="4" d="M0 13L0 0L17 0L17 13Z"  transform="translate(5.75, 8.25)" />
      <path id="path3127" fill="#000000" fill-rule="evenodd" stroke="#000000" stroke-width="1.5" stroke-linecap="butt" stroke-linejoin="round" d="M3 2.5L0 0L23 0L20 2.5Z"  transform="translate(2.75, 5.75)" />
      <path id="path3129" fill="#000000" fill-rule="evenodd" stroke="#000000" stroke-width="1.5" stroke-linecap="butt" stroke-linejoin="round" d="M0 5L0 0L4 0L4 2L9 2L9 0L14 0L14 2L19 2L19 0L23 0L23 5Z"  transform="translate(2.75, 0.75)" />
      <path id="path4967" fill="none" stroke="#ffffff" stroke-width="1" stroke-linecap="round" stroke-linejoin="miter" stroke-miterlimit="2" d="M0 0L21 0L21 0"  transform="translate(3.75, 27.25)" />
      <path id="path4969" fill="none" stroke="#ffffff" stroke-width="1" stroke-linecap="round" stroke-linejoin="miter" stroke-miterlimit="2" d="M0 0L19 0"  transform="translate(4.75, 23.25)" />
      <path id="path4971" fill="none" stroke="#ffffff" stroke-width="1" stroke-linecap="round" stroke-linejoin="miter" stroke-miterlimit="2" d="M0 0L17 0"  transform="translate(5.75, 21.25)" />
      <path id="path5050" fill="none" stroke="#ffffff" stroke-width="1" stroke-linecap="round" stroke-linejoin="miter" stroke-miterlimit="2" d="M0 0L17 0"  transform="translate(5.75, 8.25)" />
      <path id="path5052" fill="none" stroke="#ffffff" stroke-width="1" stroke-linecap="round" stroke-linejoin="miter" stroke-miterlimit="2" d="M0 0L23 0"  transform="translate(2.75, 5.75)" />
    </g>
    <g id="WhiteRook" transform="translate(250, 970.862)" fill="none">
      <path id="path3119-9" fill="#ffffff" fill-rule="evenodd" stroke="#000000" stroke-width="1.5" stroke-linecap="butt" stroke-linejoin="round" d="M0 3L27 3L27 0L0 0Z"  transform="translate(0.75, 27.75)" />
      <path id="path3121-2" fill="#ffffff" fill-rule="evenodd" stroke="#000000" stroke-width="1.5" stroke-linecap="butt" stroke-linejoin="round" d="M0 4L0 0L21 0L21 4Z"  transform="translate(3.75, 23.75)" />
      <path id="path3129-6" fill="#ffffff" fill-rule="evenodd" stroke="#000000" stroke-width="1.5" stroke-linecap="butt" stroke-linejoin="round" d="M0 5L0 0L4 0L4 2L9 2L9 0L14 0L14 2L19 2L19 0L23 0L23 5"  transform="translate(2.75, 0.75)" />
      <path id="path3127-6" fill="#ffffff" fill-rule="evenodd" stroke="#000000" stroke-width="1.5" stroke-linecap="round" stroke-linejoin="round" d="M23 0L20 3L3 3L0 0"  transform="translate(2.75, 5.75)" />
      <path id="path3125-4" fill="#ffffff" fill-rule="evenodd" stroke="#000000" stroke-width="1.5" stroke-linecap="butt" stroke-linejoin="miter" stroke-miterlimit="4" d="M17 0L17 12.5L0 12.5L0 0"  transform="translate(5.75, 8.75)" />
      <path id="path3123-9" fill="#ffffff" fill-rule="evenodd" stroke="#000000" stroke-width="1.5" stroke-linecap="round" stroke-linejoin="round" d="M18.5 0L20 2.5L0 2.5L1.5 0"  transform="translate(4.25, 21.25)" />
      <path id="path5175" fill="none" stroke="#000000" stroke-width="1" stroke-linecap="round" stroke-linejoin="miter" stroke-miterlimit="2" d="M0 0L23 0"  transform="translate(2.75, 5.75)" />
    </g>
    <rect id="WhiteTile" transform="translate(0, 907.362)" fill="#ffce9e" width="36pt" height="36pt"/>
    <rect id="BlackTile" transform="translate(50, 907.362)" fill="#d18b47" width="36pt" height="36pt"/>
    <g id="Marker" transform="translate(100.164, 907.275)" fill="none">
      <rect id="rect3136" fill="none" width="36pt" height="36pt"/>
      <path id="path1933" fill="#ffffff" fill-opacity="0" stroke="#000000" stroke-width="2.04095" stroke-linecap="square" stroke-linejoin="miter" stroke-miterlimit="2" d="M19.2533 9.62667C19.2533 14.9434 14.9434 19.2533 9.62667 19.2533C4.31001 19.2533 0 14.9434 0 9.62667C0 4.31001 4.31001 0 9.62667 0C14.9434 0 19.2533 4.31001 19.2533 9.62667Z"  transform="matrix(0.894737 0 0 0.894737 14 14)" />
    </g>
  </g>
</svg>
